<?xml version="1.0" encoding="utf-8"?>
<svg xmlns="http://www.w3.org/2000/svg" xmlns:xlink="http://www.w3.org/1999/xlink" width="600" height="400" viewBox="0 0 2400 1600">
<defs>
  <clipPath id="clip870">
    <rect x="0" y="0" width="2400" height="1600"/>
  </clipPath>
</defs>
<path clip-path="url(#clip870)" d="M0 1600 L2400 1600 L2400 0 L0 0  Z" fill="#ffffff" fill-rule="evenodd" fill-opacity="1"/>
<defs>
  <clipPath id="clip871">
    <rect x="480" y="0" width="1681" height="1600"/>
  </clipPath>
</defs>
<path clip-path="url(#clip870)" d="M286.371 1423.18 L2352.76 1423.18 L2352.76 47.2441 L286.371 47.2441  Z" fill="#ffffff" fill-rule="evenodd" fill-opacity="1"/>
<defs>
  <clipPath id="clip872">
    <rect x="286" y="47" width="2067" height="1377"/>
  </clipPath>
</defs>
<polyline clip-path="url(#clip872)" style="stroke:#000000; stroke-linecap:round; stroke-linejoin:round; stroke-width:2; stroke-opacity:0.1; fill:none" points="344.853,1423.18 344.853,47.2441 "/>
<polyline clip-path="url(#clip872)" style="stroke:#000000; stroke-linecap:round; stroke-linejoin:round; stroke-width:2; stroke-opacity:0.1; fill:none" points="647.089,1423.18 647.089,47.2441 "/>
<polyline clip-path="url(#clip872)" style="stroke:#000000; stroke-linecap:round; stroke-linejoin:round; stroke-width:2; stroke-opacity:0.1; fill:none" points="949.325,1423.18 949.325,47.2441 "/>
<polyline clip-path="url(#clip872)" style="stroke:#000000; stroke-linecap:round; stroke-linejoin:round; stroke-width:2; stroke-opacity:0.1; fill:none" points="1251.56,1423.18 1251.56,47.2441 "/>
<polyline clip-path="url(#clip872)" style="stroke:#000000; stroke-linecap:round; stroke-linejoin:round; stroke-width:2; stroke-opacity:0.1; fill:none" points="1553.8,1423.18 1553.8,47.2441 "/>
<polyline clip-path="url(#clip872)" style="stroke:#000000; stroke-linecap:round; stroke-linejoin:round; stroke-width:2; stroke-opacity:0.1; fill:none" points="1856.03,1423.18 1856.03,47.2441 "/>
<polyline clip-path="url(#clip872)" style="stroke:#000000; stroke-linecap:round; stroke-linejoin:round; stroke-width:2; stroke-opacity:0.1; fill:none" points="2158.27,1423.18 2158.27,47.2441 "/>
<polyline clip-path="url(#clip872)" style="stroke:#000000; stroke-linecap:round; stroke-linejoin:round; stroke-width:2; stroke-opacity:0.1; fill:none" points="286.371,1079.2 2352.76,1079.2 "/>
<polyline clip-path="url(#clip872)" style="stroke:#000000; stroke-linecap:round; stroke-linejoin:round; stroke-width:2; stroke-opacity:0.1; fill:none" points="286.371,735.212 2352.76,735.212 "/>
<polyline clip-path="url(#clip872)" style="stroke:#000000; stroke-linecap:round; stroke-linejoin:round; stroke-width:2; stroke-opacity:0.1; fill:none" points="286.371,391.228 2352.76,391.228 "/>
<polyline clip-path="url(#clip872)" style="stroke:#000000; stroke-linecap:round; stroke-linejoin:round; stroke-width:2; stroke-opacity:0.1; fill:none" points="286.371,47.2441 2352.76,47.2441 "/>
<polyline clip-path="url(#clip870)" style="stroke:#000000; stroke-linecap:round; stroke-linejoin:round; stroke-width:4; stroke-opacity:1; fill:none" points="286.371,1423.18 2352.76,1423.18 "/>
<polyline clip-path="url(#clip870)" style="stroke:#000000; stroke-linecap:round; stroke-linejoin:round; stroke-width:4; stroke-opacity:1; fill:none" points="344.853,1423.18 344.853,1404.28 "/>
<polyline clip-path="url(#clip870)" style="stroke:#000000; stroke-linecap:round; stroke-linejoin:round; stroke-width:4; stroke-opacity:1; fill:none" points="647.089,1423.18 647.089,1404.28 "/>
<polyline clip-path="url(#clip870)" style="stroke:#000000; stroke-linecap:round; stroke-linejoin:round; stroke-width:4; stroke-opacity:1; fill:none" points="949.325,1423.18 949.325,1404.28 "/>
<polyline clip-path="url(#clip870)" style="stroke:#000000; stroke-linecap:round; stroke-linejoin:round; stroke-width:4; stroke-opacity:1; fill:none" points="1251.56,1423.18 1251.56,1404.28 "/>
<polyline clip-path="url(#clip870)" style="stroke:#000000; stroke-linecap:round; stroke-linejoin:round; stroke-width:4; stroke-opacity:1; fill:none" points="1553.8,1423.18 1553.8,1404.28 "/>
<polyline clip-path="url(#clip870)" style="stroke:#000000; stroke-linecap:round; stroke-linejoin:round; stroke-width:4; stroke-opacity:1; fill:none" points="1856.03,1423.18 1856.03,1404.28 "/>
<polyline clip-path="url(#clip870)" style="stroke:#000000; stroke-linecap:round; stroke-linejoin:round; stroke-width:4; stroke-opacity:1; fill:none" points="2158.27,1423.18 2158.27,1404.28 "/>
<path clip-path="url(#clip870)" d="M307.955 1454.1 Q304.344 1454.1 302.515 1457.66 Q300.71 1461.2 300.71 1468.33 Q300.71 1475.44 302.515 1479.01 Q304.344 1482.55 307.955 1482.55 Q311.589 1482.55 313.395 1479.01 Q315.224 1475.44 315.224 1468.33 Q315.224 1461.2 313.395 1457.66 Q311.589 1454.1 307.955 1454.1 M307.955 1450.39 Q313.765 1450.39 316.821 1455 Q319.9 1459.58 319.9 1468.33 Q319.9 1477.06 316.821 1481.67 Q313.765 1486.25 307.955 1486.25 Q302.145 1486.25 299.066 1481.67 Q296.011 1477.06 296.011 1468.33 Q296.011 1459.58 299.066 1455 Q302.145 1450.39 307.955 1450.39 Z" fill="#000000" fill-rule="nonzero" fill-opacity="1" /><path clip-path="url(#clip870)" d="M328.117 1479.7 L333.001 1479.7 L333.001 1485.58 L328.117 1485.58 L328.117 1479.7 Z" fill="#000000" fill-rule="nonzero" fill-opacity="1" /><path clip-path="url(#clip870)" d="M353.186 1454.1 Q349.575 1454.1 347.747 1457.66 Q345.941 1461.2 345.941 1468.33 Q345.941 1475.44 347.747 1479.01 Q349.575 1482.55 353.186 1482.55 Q356.821 1482.55 358.626 1479.01 Q360.455 1475.44 360.455 1468.33 Q360.455 1461.2 358.626 1457.66 Q356.821 1454.1 353.186 1454.1 M353.186 1450.39 Q358.997 1450.39 362.052 1455 Q365.131 1459.58 365.131 1468.33 Q365.131 1477.06 362.052 1481.67 Q358.997 1486.25 353.186 1486.25 Q347.376 1486.25 344.298 1481.67 Q341.242 1477.06 341.242 1468.33 Q341.242 1459.58 344.298 1455 Q347.376 1450.39 353.186 1450.39 Z" fill="#000000" fill-rule="nonzero" fill-opacity="1" /><path clip-path="url(#clip870)" d="M377.376 1481.64 L393.695 1481.64 L393.695 1485.58 L371.751 1485.58 L371.751 1481.64 Q374.413 1478.89 378.996 1474.26 Q383.603 1469.61 384.783 1468.27 Q387.029 1465.74 387.908 1464.01 Q388.811 1462.25 388.811 1460.56 Q388.811 1457.8 386.867 1456.07 Q384.946 1454.33 381.844 1454.33 Q379.645 1454.33 377.191 1455.09 Q374.76 1455.86 371.983 1457.41 L371.983 1452.69 Q374.807 1451.55 377.26 1450.97 Q379.714 1450.39 381.751 1450.39 Q387.121 1450.39 390.316 1453.08 Q393.51 1455.77 393.51 1460.26 Q393.51 1462.39 392.7 1464.31 Q391.913 1466.2 389.807 1468.8 Q389.228 1469.47 386.126 1472.69 Q383.024 1475.88 377.376 1481.64 Z" fill="#000000" fill-rule="nonzero" fill-opacity="1" /><path clip-path="url(#clip870)" d="M609.149 1454.1 Q605.538 1454.1 603.709 1457.66 Q601.904 1461.2 601.904 1468.33 Q601.904 1475.44 603.709 1479.01 Q605.538 1482.55 609.149 1482.55 Q612.783 1482.55 614.589 1479.01 Q616.418 1475.44 616.418 1468.33 Q616.418 1461.2 614.589 1457.66 Q612.783 1454.1 609.149 1454.1 M609.149 1450.39 Q614.959 1450.39 618.015 1455 Q621.094 1459.58 621.094 1468.33 Q621.094 1477.06 618.015 1481.67 Q614.959 1486.25 609.149 1486.25 Q603.339 1486.25 600.26 1481.67 Q597.205 1477.06 597.205 1468.33 Q597.205 1459.58 600.26 1455 Q603.339 1450.39 609.149 1450.39 Z" fill="#000000" fill-rule="nonzero" fill-opacity="1" /><path clip-path="url(#clip870)" d="M629.311 1479.7 L634.195 1479.7 L634.195 1485.58 L629.311 1485.58 L629.311 1479.7 Z" fill="#000000" fill-rule="nonzero" fill-opacity="1" /><path clip-path="url(#clip870)" d="M654.38 1454.1 Q650.769 1454.1 648.941 1457.66 Q647.135 1461.2 647.135 1468.33 Q647.135 1475.44 648.941 1479.01 Q650.769 1482.55 654.38 1482.55 Q658.015 1482.55 659.82 1479.01 Q661.649 1475.44 661.649 1468.33 Q661.649 1461.2 659.82 1457.66 Q658.015 1454.1 654.38 1454.1 M654.38 1450.39 Q660.191 1450.39 663.246 1455 Q666.325 1459.58 666.325 1468.33 Q666.325 1477.06 663.246 1481.67 Q660.191 1486.25 654.38 1486.25 Q648.57 1486.25 645.492 1481.67 Q642.436 1477.06 642.436 1468.33 Q642.436 1459.58 645.492 1455 Q648.57 1450.39 654.38 1450.39 Z" fill="#000000" fill-rule="nonzero" fill-opacity="1" /><path clip-path="url(#clip870)" d="M687.39 1455.09 L675.584 1473.54 L687.39 1473.54 L687.39 1455.09 M686.163 1451.02 L692.042 1451.02 L692.042 1473.54 L696.973 1473.54 L696.973 1477.43 L692.042 1477.43 L692.042 1485.58 L687.39 1485.58 L687.39 1477.43 L671.788 1477.43 L671.788 1472.92 L686.163 1451.02 Z" fill="#000000" fill-rule="nonzero" fill-opacity="1" /><path clip-path="url(#clip870)" d="M911.547 1454.1 Q907.936 1454.1 906.107 1457.66 Q904.302 1461.2 904.302 1468.33 Q904.302 1475.44 906.107 1479.01 Q907.936 1482.55 911.547 1482.55 Q915.181 1482.55 916.987 1479.01 Q918.815 1475.44 918.815 1468.33 Q918.815 1461.2 916.987 1457.66 Q915.181 1454.1 911.547 1454.1 M911.547 1450.39 Q917.357 1450.39 920.413 1455 Q923.491 1459.58 923.491 1468.33 Q923.491 1477.06 920.413 1481.67 Q917.357 1486.25 911.547 1486.25 Q905.737 1486.25 902.658 1481.67 Q899.603 1477.06 899.603 1468.33 Q899.603 1459.58 902.658 1455 Q905.737 1450.39 911.547 1450.39 Z" fill="#000000" fill-rule="nonzero" fill-opacity="1" /><path clip-path="url(#clip870)" d="M931.709 1479.7 L936.593 1479.7 L936.593 1485.58 L931.709 1485.58 L931.709 1479.7 Z" fill="#000000" fill-rule="nonzero" fill-opacity="1" /><path clip-path="url(#clip870)" d="M956.778 1454.1 Q953.167 1454.1 951.338 1457.66 Q949.533 1461.2 949.533 1468.33 Q949.533 1475.44 951.338 1479.01 Q953.167 1482.55 956.778 1482.55 Q960.412 1482.55 962.218 1479.01 Q964.047 1475.44 964.047 1468.33 Q964.047 1461.2 962.218 1457.66 Q960.412 1454.1 956.778 1454.1 M956.778 1450.39 Q962.588 1450.39 965.644 1455 Q968.723 1459.58 968.723 1468.33 Q968.723 1477.06 965.644 1481.67 Q962.588 1486.25 956.778 1486.25 Q950.968 1486.25 947.889 1481.67 Q944.834 1477.06 944.834 1468.33 Q944.834 1459.58 947.889 1455 Q950.968 1450.39 956.778 1450.39 Z" fill="#000000" fill-rule="nonzero" fill-opacity="1" /><path clip-path="url(#clip870)" d="M987.519 1466.44 Q984.371 1466.44 982.519 1468.59 Q980.69 1470.74 980.69 1474.49 Q980.69 1478.22 982.519 1480.39 Q984.371 1482.55 987.519 1482.55 Q990.667 1482.55 992.496 1480.39 Q994.347 1478.22 994.347 1474.49 Q994.347 1470.74 992.496 1468.59 Q990.667 1466.44 987.519 1466.44 M996.801 1451.78 L996.801 1456.04 Q995.042 1455.21 993.236 1454.77 Q991.454 1454.33 989.695 1454.33 Q985.065 1454.33 982.611 1457.45 Q980.181 1460.58 979.834 1466.9 Q981.199 1464.89 983.26 1463.82 Q985.32 1462.73 987.797 1462.73 Q993.005 1462.73 996.014 1465.9 Q999.046 1469.05 999.046 1474.49 Q999.046 1479.82 995.898 1483.03 Q992.75 1486.25 987.519 1486.25 Q981.523 1486.25 978.352 1481.67 Q975.181 1477.06 975.181 1468.33 Q975.181 1460.14 979.07 1455.28 Q982.959 1450.39 989.509 1450.39 Q991.269 1450.39 993.051 1450.74 Q994.857 1451.09 996.801 1451.78 Z" fill="#000000" fill-rule="nonzero" fill-opacity="1" /><path clip-path="url(#clip870)" d="M1213.91 1454.1 Q1210.3 1454.1 1208.47 1457.66 Q1206.66 1461.2 1206.66 1468.33 Q1206.66 1475.44 1208.47 1479.01 Q1210.3 1482.55 1213.91 1482.55 Q1217.54 1482.55 1219.35 1479.01 Q1221.18 1475.44 1221.18 1468.33 Q1221.18 1461.2 1219.35 1457.66 Q1217.54 1454.1 1213.91 1454.1 M1213.91 1450.39 Q1219.72 1450.39 1222.78 1455 Q1225.85 1459.58 1225.85 1468.33 Q1225.85 1477.06 1222.78 1481.67 Q1219.72 1486.25 1213.91 1486.25 Q1208.1 1486.25 1205.02 1481.67 Q1201.97 1477.06 1201.97 1468.33 Q1201.97 1459.58 1205.02 1455 Q1208.1 1450.39 1213.91 1450.39 Z" fill="#000000" fill-rule="nonzero" fill-opacity="1" /><path clip-path="url(#clip870)" d="M1234.07 1479.7 L1238.96 1479.7 L1238.96 1485.58 L1234.07 1485.58 L1234.07 1479.7 Z" fill="#000000" fill-rule="nonzero" fill-opacity="1" /><path clip-path="url(#clip870)" d="M1259.14 1454.1 Q1255.53 1454.1 1253.7 1457.66 Q1251.9 1461.2 1251.9 1468.33 Q1251.9 1475.44 1253.7 1479.01 Q1255.53 1482.55 1259.14 1482.55 Q1262.78 1482.55 1264.58 1479.01 Q1266.41 1475.44 1266.41 1468.33 Q1266.41 1461.2 1264.58 1457.66 Q1262.78 1454.1 1259.14 1454.1 M1259.14 1450.39 Q1264.95 1450.39 1268.01 1455 Q1271.09 1459.58 1271.09 1468.33 Q1271.09 1477.06 1268.01 1481.67 Q1264.95 1486.25 1259.14 1486.25 Q1253.33 1486.25 1250.25 1481.67 Q1247.2 1477.06 1247.2 1468.33 Q1247.2 1459.58 1250.25 1455 Q1253.33 1450.39 1259.14 1450.39 Z" fill="#000000" fill-rule="nonzero" fill-opacity="1" /><path clip-path="url(#clip870)" d="M1289.3 1469.17 Q1285.97 1469.17 1284.05 1470.95 Q1282.15 1472.73 1282.15 1475.86 Q1282.15 1478.98 1284.05 1480.77 Q1285.97 1482.55 1289.3 1482.55 Q1292.64 1482.55 1294.56 1480.77 Q1296.48 1478.96 1296.48 1475.86 Q1296.48 1472.73 1294.56 1470.95 Q1292.66 1469.17 1289.3 1469.17 M1284.63 1467.18 Q1281.62 1466.44 1279.93 1464.38 Q1278.26 1462.32 1278.26 1459.35 Q1278.26 1455.21 1281.2 1452.8 Q1284.16 1450.39 1289.3 1450.39 Q1294.47 1450.39 1297.4 1452.8 Q1300.34 1455.21 1300.34 1459.35 Q1300.34 1462.32 1298.65 1464.38 Q1296.99 1466.44 1294 1467.18 Q1297.38 1467.96 1299.26 1470.26 Q1301.15 1472.55 1301.15 1475.86 Q1301.15 1480.88 1298.08 1483.57 Q1295.02 1486.25 1289.3 1486.25 Q1283.59 1486.25 1280.51 1483.57 Q1277.45 1480.88 1277.45 1475.86 Q1277.45 1472.55 1279.35 1470.26 Q1281.25 1467.96 1284.63 1467.18 M1282.91 1459.79 Q1282.91 1462.48 1284.58 1463.98 Q1286.27 1465.49 1289.3 1465.49 Q1292.31 1465.49 1294 1463.98 Q1295.72 1462.48 1295.72 1459.79 Q1295.72 1457.11 1294 1455.6 Q1292.31 1454.1 1289.3 1454.1 Q1286.27 1454.1 1284.58 1455.6 Q1282.91 1457.11 1282.91 1459.79 Z" fill="#000000" fill-rule="nonzero" fill-opacity="1" /><path clip-path="url(#clip870)" d="M1516.1 1454.1 Q1512.49 1454.1 1510.66 1457.66 Q1508.85 1461.2 1508.85 1468.33 Q1508.85 1475.44 1510.66 1479.01 Q1512.49 1482.55 1516.1 1482.55 Q1519.73 1482.55 1521.54 1479.01 Q1523.37 1475.44 1523.37 1468.33 Q1523.37 1461.2 1521.54 1457.66 Q1519.73 1454.1 1516.1 1454.1 M1516.1 1450.39 Q1521.91 1450.39 1524.97 1455 Q1528.04 1459.58 1528.04 1468.33 Q1528.04 1477.06 1524.97 1481.67 Q1521.91 1486.25 1516.1 1486.25 Q1510.29 1486.25 1507.21 1481.67 Q1504.15 1477.06 1504.15 1468.33 Q1504.15 1459.58 1507.21 1455 Q1510.29 1450.39 1516.1 1450.39 Z" fill="#000000" fill-rule="nonzero" fill-opacity="1" /><path clip-path="url(#clip870)" d="M1536.26 1479.7 L1541.15 1479.7 L1541.15 1485.58 L1536.26 1485.58 L1536.26 1479.7 Z" fill="#000000" fill-rule="nonzero" fill-opacity="1" /><path clip-path="url(#clip870)" d="M1552.14 1481.64 L1559.78 1481.64 L1559.78 1455.28 L1551.47 1456.95 L1551.47 1452.69 L1559.73 1451.02 L1564.41 1451.02 L1564.41 1481.64 L1572.05 1481.64 L1572.05 1485.58 L1552.14 1485.58 L1552.14 1481.64 Z" fill="#000000" fill-rule="nonzero" fill-opacity="1" /><path clip-path="url(#clip870)" d="M1591.49 1454.1 Q1587.88 1454.1 1586.05 1457.66 Q1584.25 1461.2 1584.25 1468.33 Q1584.25 1475.44 1586.05 1479.01 Q1587.88 1482.55 1591.49 1482.55 Q1595.13 1482.55 1596.93 1479.01 Q1598.76 1475.44 1598.76 1468.33 Q1598.76 1461.2 1596.93 1457.66 Q1595.13 1454.1 1591.49 1454.1 M1591.49 1450.39 Q1597.3 1450.39 1600.36 1455 Q1603.44 1459.58 1603.44 1468.33 Q1603.44 1477.06 1600.36 1481.67 Q1597.3 1486.25 1591.49 1486.25 Q1585.68 1486.25 1582.6 1481.67 Q1579.55 1477.06 1579.55 1468.33 Q1579.55 1459.58 1582.6 1455 Q1585.68 1450.39 1591.49 1450.39 Z" fill="#000000" fill-rule="nonzero" fill-opacity="1" /><path clip-path="url(#clip870)" d="M1819.13 1454.1 Q1815.52 1454.1 1813.69 1457.66 Q1811.89 1461.2 1811.89 1468.33 Q1811.89 1475.44 1813.69 1479.01 Q1815.52 1482.55 1819.13 1482.55 Q1822.77 1482.55 1824.57 1479.01 Q1826.4 1475.44 1826.4 1468.33 Q1826.4 1461.2 1824.57 1457.66 Q1822.77 1454.1 1819.13 1454.1 M1819.13 1450.39 Q1824.94 1450.39 1828 1455 Q1831.08 1459.58 1831.08 1468.33 Q1831.08 1477.06 1828 1481.67 Q1824.94 1486.25 1819.13 1486.25 Q1813.32 1486.25 1810.24 1481.67 Q1807.19 1477.06 1807.19 1468.33 Q1807.19 1459.58 1810.24 1455 Q1813.32 1450.39 1819.13 1450.39 Z" fill="#000000" fill-rule="nonzero" fill-opacity="1" /><path clip-path="url(#clip870)" d="M1839.3 1479.7 L1844.18 1479.7 L1844.18 1485.58 L1839.3 1485.58 L1839.3 1479.7 Z" fill="#000000" fill-rule="nonzero" fill-opacity="1" /><path clip-path="url(#clip870)" d="M1855.18 1481.64 L1862.81 1481.64 L1862.81 1455.28 L1854.5 1456.95 L1854.5 1452.69 L1862.77 1451.02 L1867.44 1451.02 L1867.44 1481.64 L1875.08 1481.64 L1875.08 1485.58 L1855.18 1485.58 L1855.18 1481.64 Z" fill="#000000" fill-rule="nonzero" fill-opacity="1" /><path clip-path="url(#clip870)" d="M1888.55 1481.64 L1904.87 1481.64 L1904.87 1485.58 L1882.93 1485.58 L1882.93 1481.64 Q1885.59 1478.89 1890.17 1474.26 Q1894.78 1469.61 1895.96 1468.27 Q1898.21 1465.74 1899.09 1464.01 Q1899.99 1462.25 1899.99 1460.56 Q1899.99 1457.8 1898.05 1456.07 Q1896.12 1454.33 1893.02 1454.33 Q1890.82 1454.33 1888.37 1455.09 Q1885.94 1455.86 1883.16 1457.41 L1883.16 1452.69 Q1885.99 1451.55 1888.44 1450.97 Q1890.89 1450.39 1892.93 1450.39 Q1898.3 1450.39 1901.49 1453.08 Q1904.69 1455.77 1904.69 1460.26 Q1904.69 1462.39 1903.88 1464.31 Q1903.09 1466.2 1900.99 1468.8 Q1900.41 1469.47 1897.3 1472.69 Q1894.2 1475.88 1888.55 1481.64 Z" fill="#000000" fill-rule="nonzero" fill-opacity="1" /><path clip-path="url(#clip870)" d="M2120.33 1454.1 Q2116.72 1454.1 2114.89 1457.66 Q2113.08 1461.2 2113.08 1468.33 Q2113.08 1475.44 2114.89 1479.01 Q2116.72 1482.55 2120.33 1482.55 Q2123.96 1482.55 2125.77 1479.01 Q2127.6 1475.44 2127.6 1468.33 Q2127.6 1461.2 2125.77 1457.66 Q2123.96 1454.1 2120.33 1454.1 M2120.33 1450.39 Q2126.14 1450.39 2129.19 1455 Q2132.27 1459.58 2132.27 1468.33 Q2132.27 1477.06 2129.19 1481.67 Q2126.14 1486.25 2120.33 1486.25 Q2114.52 1486.25 2111.44 1481.67 Q2108.38 1477.06 2108.38 1468.33 Q2108.38 1459.58 2111.44 1455 Q2114.52 1450.39 2120.33 1450.39 Z" fill="#000000" fill-rule="nonzero" fill-opacity="1" /><path clip-path="url(#clip870)" d="M2140.49 1479.7 L2145.37 1479.7 L2145.37 1485.58 L2140.49 1485.58 L2140.49 1479.7 Z" fill="#000000" fill-rule="nonzero" fill-opacity="1" /><path clip-path="url(#clip870)" d="M2156.37 1481.64 L2164.01 1481.64 L2164.01 1455.28 L2155.7 1456.95 L2155.7 1452.69 L2163.96 1451.02 L2168.64 1451.02 L2168.64 1481.64 L2176.28 1481.64 L2176.28 1485.58 L2156.37 1485.58 L2156.37 1481.64 Z" fill="#000000" fill-rule="nonzero" fill-opacity="1" /><path clip-path="url(#clip870)" d="M2198.57 1455.09 L2186.76 1473.54 L2198.57 1473.54 L2198.57 1455.09 M2197.34 1451.02 L2203.22 1451.02 L2203.22 1473.54 L2208.15 1473.54 L2208.15 1477.43 L2203.22 1477.43 L2203.22 1485.58 L2198.57 1485.58 L2198.57 1477.43 L2182.97 1477.43 L2182.97 1472.92 L2197.34 1451.02 Z" fill="#000000" fill-rule="nonzero" fill-opacity="1" /><path clip-path="url(#clip870)" d="M1310.05 1565.85 L1310.05 1581.6 L1304.16 1581.6 L1304.16 1532.62 Q1304.16 1518.1 1317.72 1518.1 Q1331.53 1518.1 1331.53 1530.36 Q1331.53 1539.08 1326.06 1542.26 Q1334.97 1545.13 1334.97 1553.63 Q1334.97 1568.71 1319.63 1568.71 Q1312.88 1568.71 1310.05 1565.85 M1310.05 1558.21 Q1313.58 1563.72 1319.85 1563.72 Q1329.02 1563.72 1329.02 1553.72 Q1329.02 1544.75 1314.25 1545.45 L1314.25 1540.03 Q1325.8 1540.03 1325.8 1529.85 Q1325.8 1522.88 1318.35 1522.88 Q1310.05 1522.88 1310.05 1532.81 L1310.05 1558.21 Z" fill="#000000" fill-rule="nonzero" fill-opacity="1" /><polyline clip-path="url(#clip870)" style="stroke:#000000; stroke-linecap:round; stroke-linejoin:round; stroke-width:4; stroke-opacity:1; fill:none" points="286.371,1423.18 286.371,47.2441 "/>
<polyline clip-path="url(#clip870)" style="stroke:#000000; stroke-linecap:round; stroke-linejoin:round; stroke-width:4; stroke-opacity:1; fill:none" points="286.371,1079.2 305.268,1079.2 "/>
<polyline clip-path="url(#clip870)" style="stroke:#000000; stroke-linecap:round; stroke-linejoin:round; stroke-width:4; stroke-opacity:1; fill:none" points="286.371,735.212 305.268,735.212 "/>
<polyline clip-path="url(#clip870)" style="stroke:#000000; stroke-linecap:round; stroke-linejoin:round; stroke-width:4; stroke-opacity:1; fill:none" points="286.371,391.228 305.268,391.228 "/>
<polyline clip-path="url(#clip870)" style="stroke:#000000; stroke-linecap:round; stroke-linejoin:round; stroke-width:4; stroke-opacity:1; fill:none" points="286.371,47.2441 305.268,47.2441 "/>
<path clip-path="url(#clip870)" d="M114.26 1079.65 L143.936 1079.65 L143.936 1083.58 L114.26 1083.58 L114.26 1079.65 Z" fill="#000000" fill-rule="nonzero" fill-opacity="1" /><path clip-path="url(#clip870)" d="M164.028 1064.99 Q160.417 1064.99 158.589 1068.56 Q156.783 1072.1 156.783 1079.23 Q156.783 1086.34 158.589 1089.9 Q160.417 1093.44 164.028 1093.44 Q167.663 1093.44 169.468 1089.9 Q171.297 1086.34 171.297 1079.23 Q171.297 1072.1 169.468 1068.56 Q167.663 1064.99 164.028 1064.99 M164.028 1061.29 Q169.839 1061.29 172.894 1065.9 Q175.973 1070.48 175.973 1079.23 Q175.973 1087.96 172.894 1092.56 Q169.839 1097.15 164.028 1097.15 Q158.218 1097.15 155.14 1092.56 Q152.084 1087.96 152.084 1079.23 Q152.084 1070.48 155.14 1065.9 Q158.218 1061.29 164.028 1061.29 Z" fill="#000000" fill-rule="nonzero" fill-opacity="1" /><path clip-path="url(#clip870)" d="M184.19 1090.6 L189.075 1090.6 L189.075 1096.48 L184.19 1096.48 L184.19 1090.6 Z" fill="#000000" fill-rule="nonzero" fill-opacity="1" /><path clip-path="url(#clip870)" d="M209.26 1064.99 Q205.649 1064.99 203.82 1068.56 Q202.014 1072.1 202.014 1079.23 Q202.014 1086.34 203.82 1089.9 Q205.649 1093.44 209.26 1093.44 Q212.894 1093.44 214.699 1089.9 Q216.528 1086.34 216.528 1079.23 Q216.528 1072.1 214.699 1068.56 Q212.894 1064.99 209.26 1064.99 M209.26 1061.29 Q215.07 1061.29 218.125 1065.9 Q221.204 1070.48 221.204 1079.23 Q221.204 1087.96 218.125 1092.56 Q215.07 1097.15 209.26 1097.15 Q203.449 1097.15 200.371 1092.56 Q197.315 1087.96 197.315 1079.23 Q197.315 1070.48 200.371 1065.9 Q203.449 1061.29 209.26 1061.29 Z" fill="#000000" fill-rule="nonzero" fill-opacity="1" /><path clip-path="url(#clip870)" d="M229.468 1061.92 L247.824 1061.92 L247.824 1065.85 L233.75 1065.85 L233.75 1074.32 Q234.769 1073.98 235.787 1073.81 Q236.806 1073.63 237.824 1073.63 Q243.611 1073.63 246.991 1076.8 Q250.371 1079.97 250.371 1085.39 Q250.371 1090.97 246.898 1094.07 Q243.426 1097.15 237.107 1097.15 Q234.931 1097.15 232.662 1096.78 Q230.417 1096.41 228.01 1095.67 L228.01 1090.97 Q230.093 1092.1 232.315 1092.66 Q234.537 1093.21 237.014 1093.21 Q241.019 1093.21 243.357 1091.11 Q245.695 1089 245.695 1085.39 Q245.695 1081.78 243.357 1079.67 Q241.019 1077.56 237.014 1077.56 Q235.139 1077.56 233.264 1077.98 Q231.412 1078.4 229.468 1079.28 L229.468 1061.92 Z" fill="#000000" fill-rule="nonzero" fill-opacity="1" /><path clip-path="url(#clip870)" d="M163.033 721.011 Q159.422 721.011 157.593 724.575 Q155.788 728.117 155.788 735.247 Q155.788 742.353 157.593 745.918 Q159.422 749.46 163.033 749.46 Q166.667 749.46 168.473 745.918 Q170.302 742.353 170.302 735.247 Q170.302 728.117 168.473 724.575 Q166.667 721.011 163.033 721.011 M163.033 717.307 Q168.843 717.307 171.899 721.913 Q174.977 726.497 174.977 735.247 Q174.977 743.973 171.899 748.58 Q168.843 753.163 163.033 753.163 Q157.223 753.163 154.144 748.58 Q151.089 743.973 151.089 735.247 Q151.089 726.497 154.144 721.913 Q157.223 717.307 163.033 717.307 Z" fill="#000000" fill-rule="nonzero" fill-opacity="1" /><path clip-path="url(#clip870)" d="M183.195 746.612 L188.079 746.612 L188.079 752.492 L183.195 752.492 L183.195 746.612 Z" fill="#000000" fill-rule="nonzero" fill-opacity="1" /><path clip-path="url(#clip870)" d="M208.264 721.011 Q204.653 721.011 202.824 724.575 Q201.019 728.117 201.019 735.247 Q201.019 742.353 202.824 745.918 Q204.653 749.46 208.264 749.46 Q211.899 749.46 213.704 745.918 Q215.533 742.353 215.533 735.247 Q215.533 728.117 213.704 724.575 Q211.899 721.011 208.264 721.011 M208.264 717.307 Q214.074 717.307 217.13 721.913 Q220.209 726.497 220.209 735.247 Q220.209 743.973 217.13 748.58 Q214.074 753.163 208.264 753.163 Q202.454 753.163 199.375 748.58 Q196.32 743.973 196.32 735.247 Q196.32 726.497 199.375 721.913 Q202.454 717.307 208.264 717.307 Z" fill="#000000" fill-rule="nonzero" fill-opacity="1" /><path clip-path="url(#clip870)" d="M238.426 721.011 Q234.815 721.011 232.986 724.575 Q231.181 728.117 231.181 735.247 Q231.181 742.353 232.986 745.918 Q234.815 749.46 238.426 749.46 Q242.06 749.46 243.866 745.918 Q245.695 742.353 245.695 735.247 Q245.695 728.117 243.866 724.575 Q242.06 721.011 238.426 721.011 M238.426 717.307 Q244.236 717.307 247.292 721.913 Q250.371 726.497 250.371 735.247 Q250.371 743.973 247.292 748.58 Q244.236 753.163 238.426 753.163 Q232.616 753.163 229.537 748.58 Q226.482 743.973 226.482 735.247 Q226.482 726.497 229.537 721.913 Q232.616 717.307 238.426 717.307 Z" fill="#000000" fill-rule="nonzero" fill-opacity="1" /><path clip-path="url(#clip870)" d="M164.028 377.027 Q160.417 377.027 158.589 380.592 Q156.783 384.133 156.783 391.263 Q156.783 398.369 158.589 401.934 Q160.417 405.476 164.028 405.476 Q167.663 405.476 169.468 401.934 Q171.297 398.369 171.297 391.263 Q171.297 384.133 169.468 380.592 Q167.663 377.027 164.028 377.027 M164.028 373.323 Q169.839 373.323 172.894 377.929 Q175.973 382.513 175.973 391.263 Q175.973 399.99 172.894 404.596 Q169.839 409.179 164.028 409.179 Q158.218 409.179 155.14 404.596 Q152.084 399.99 152.084 391.263 Q152.084 382.513 155.14 377.929 Q158.218 373.323 164.028 373.323 Z" fill="#000000" fill-rule="nonzero" fill-opacity="1" /><path clip-path="url(#clip870)" d="M184.19 402.628 L189.075 402.628 L189.075 408.508 L184.19 408.508 L184.19 402.628 Z" fill="#000000" fill-rule="nonzero" fill-opacity="1" /><path clip-path="url(#clip870)" d="M209.26 377.027 Q205.649 377.027 203.82 380.592 Q202.014 384.133 202.014 391.263 Q202.014 398.369 203.82 401.934 Q205.649 405.476 209.26 405.476 Q212.894 405.476 214.699 401.934 Q216.528 398.369 216.528 391.263 Q216.528 384.133 214.699 380.592 Q212.894 377.027 209.26 377.027 M209.26 373.323 Q215.07 373.323 218.125 377.929 Q221.204 382.513 221.204 391.263 Q221.204 399.99 218.125 404.596 Q215.07 409.179 209.26 409.179 Q203.449 409.179 200.371 404.596 Q197.315 399.99 197.315 391.263 Q197.315 382.513 200.371 377.929 Q203.449 373.323 209.26 373.323 Z" fill="#000000" fill-rule="nonzero" fill-opacity="1" /><path clip-path="url(#clip870)" d="M229.468 373.948 L247.824 373.948 L247.824 377.883 L233.75 377.883 L233.75 386.355 Q234.769 386.008 235.787 385.846 Q236.806 385.661 237.824 385.661 Q243.611 385.661 246.991 388.832 Q250.371 392.003 250.371 397.42 Q250.371 402.999 246.898 406.101 Q243.426 409.179 237.107 409.179 Q234.931 409.179 232.662 408.809 Q230.417 408.439 228.01 407.698 L228.01 402.999 Q230.093 404.133 232.315 404.689 Q234.537 405.244 237.014 405.244 Q241.019 405.244 243.357 403.138 Q245.695 401.031 245.695 397.42 Q245.695 393.809 243.357 391.703 Q241.019 389.596 237.014 389.596 Q235.139 389.596 233.264 390.013 Q231.412 390.429 229.468 391.309 L229.468 373.948 Z" fill="#000000" fill-rule="nonzero" fill-opacity="1" /><path clip-path="url(#clip870)" d="M163.033 33.0428 Q159.422 33.0428 157.593 36.6076 Q155.788 40.1492 155.788 47.2788 Q155.788 54.3853 157.593 57.9501 Q159.422 61.4917 163.033 61.4917 Q166.667 61.4917 168.473 57.9501 Q170.302 54.3853 170.302 47.2788 Q170.302 40.1492 168.473 36.6076 Q166.667 33.0428 163.033 33.0428 M163.033 29.3391 Q168.843 29.3391 171.899 33.9456 Q174.977 38.5289 174.977 47.2788 Q174.977 56.0056 171.899 60.6121 Q168.843 65.1954 163.033 65.1954 Q157.223 65.1954 154.144 60.6121 Q151.089 56.0056 151.089 47.2788 Q151.089 38.5289 154.144 33.9456 Q157.223 29.3391 163.033 29.3391 Z" fill="#000000" fill-rule="nonzero" fill-opacity="1" /><path clip-path="url(#clip870)" d="M183.195 58.6445 L188.079 58.6445 L188.079 64.5241 L183.195 64.5241 L183.195 58.6445 Z" fill="#000000" fill-rule="nonzero" fill-opacity="1" /><path clip-path="url(#clip870)" d="M199.075 60.5889 L206.713 60.5889 L206.713 34.2233 L198.403 35.89 L198.403 31.6308 L206.667 29.9641 L211.343 29.9641 L211.343 60.5889 L218.982 60.5889 L218.982 64.5241 L199.075 64.5241 L199.075 60.5889 Z" fill="#000000" fill-rule="nonzero" fill-opacity="1" /><path clip-path="url(#clip870)" d="M238.426 33.0428 Q234.815 33.0428 232.986 36.6076 Q231.181 40.1492 231.181 47.2788 Q231.181 54.3853 232.986 57.9501 Q234.815 61.4917 238.426 61.4917 Q242.06 61.4917 243.866 57.9501 Q245.695 54.3853 245.695 47.2788 Q245.695 40.1492 243.866 36.6076 Q242.06 33.0428 238.426 33.0428 M238.426 29.3391 Q244.236 29.3391 247.292 33.9456 Q250.371 38.5289 250.371 47.2788 Q250.371 56.0056 247.292 60.6121 Q244.236 65.1954 238.426 65.1954 Q232.616 65.1954 229.537 60.6121 Q226.482 56.0056 226.482 47.2788 Q226.482 38.5289 229.537 33.9456 Q232.616 29.3391 238.426 29.3391 Z" fill="#000000" fill-rule="nonzero" fill-opacity="1" /><path clip-path="url(#clip870)" d="M47.4215 753.863 L40.0691 755.264 Q32.5257 756.696 32.5257 762.362 Q32.5257 766.627 36.0269 768.568 Q40.4192 771.019 46.212 771.019 Q53.2143 771.019 56.5563 768.632 Q59.9619 766.213 59.9619 762.362 Q59.9619 758.097 53.1825 755.805 L47.4215 753.863 M37.682 750.585 L28.3562 747.434 L28.3562 742.214 L47.6761 748.739 L54.6466 747.466 Q56.2062 747.179 57.5111 746.065 Q59.0389 744.761 59.0389 743.742 L59.0389 740.941 L64.0042 740.941 L64.0042 744.442 Q64.0042 747.434 61.3306 750.108 Q59.9938 751.413 57.1929 751.954 Q60.7258 753.418 63.4949 756.41 Q64.7999 757.81 64.7999 762.362 Q64.7999 769.841 59.9619 773.47 Q54.9649 777.194 46.212 777.194 Q36.8544 777.194 32.4621 773.152 Q27.5605 768.664 27.5605 762.362 Q27.5605 752.463 37.682 750.585 Z" fill="#000000" fill-rule="nonzero" fill-opacity="1" /><path clip-path="url(#clip870)" d="M74.8259 704.593 L79.3773 704.593 L79.3773 738.458 L74.8259 738.458 L74.8259 704.593 Z" fill="#000000" fill-rule="nonzero" fill-opacity="1" /><path clip-path="url(#clip870)" d="M28.3562 699.087 L28.3562 693.23 L64.0042 693.23 L64.0042 699.087 L28.3562 699.087 M14.479 699.087 L14.479 693.23 L21.895 693.23 L21.895 699.087 L14.479 699.087 Z" fill="#000000" fill-rule="nonzero" fill-opacity="1" /><polyline clip-path="url(#clip872)" style="stroke:#009af9; stroke-linecap:round; stroke-linejoin:round; stroke-width:4; stroke-opacity:1; fill:none" points="2294.27,735.212 2279.16,735.212 2264.05,735.212 2248.94,735.212 2233.83,735.212 2218.71,735.212 2203.6,735.212 2188.49,735.212 2173.38,735.212 2158.27,735.212 2143.16,735.212 2128.04,735.619 2112.93,536.781 2097.82,544.353 2082.71,551.497 2067.6,558.92 2052.48,566.427 2037.37,573.621 2022.26,581.312 2007.15,588.809 1992.04,596.337 1976.93,603.966 1961.81,611.485 1946.7,619.074 1931.59,627.179 1916.48,634.391 1901.37,642.001 1886.26,649.734 1871.14,657.491 1856.03,665.306 1840.92,673.028 1825.81,681.711 1810.7,688.604 1795.58,696.395 1780.47,704.228 1765.36,712.087 1750.25,719.945 1735.14,727.82 1720.03,735.914 1704.91,743.608 1689.8,751.537 1674.69,759.49 1659.58,767.36 1644.47,775.22 1629.35,783.033 1614.24,791.065 1599.13,798.979 1584.02,806.861 1568.91,814.728 1553.8,822.602 1538.68,829.078 1523.57,838.368 1508.46,846.085 1493.35,853.582 1478.24,861.42 1463.13,869.08 1448.01,876.658 1432.9,884.174 1417.79,891.592 1402.68,898.867 1387.57,906.27 1372.45,913.369 1357.34,920.192 1342.23,927.283 1327.12,933.999 1312.01,940.534 1296.9,946.906 1281.78,953.039 1266.67,958.606 1251.56,964.409 1236.45,969.472 1221.34,974.761 1206.22,979.311 1191.11,983.412 1176,986.899 1160.89,990.063 1145.78,992.523 1130.67,993.702 1115.55,995.122 1100.44,995.189 1085.33,994.366 1070.22,991.824 1055.11,988.677 1040,983.765 1024.88,977.353 1009.77,969.219 994.66,958.632 979.548,946.893 964.436,932.323 949.325,915.591 934.213,895.538 919.101,872.417 903.989,845.874 888.877,815.154 873.766,778.226 858.654,732.448 843.542,710.382 828.43,710.154 813.318,729.262 798.207,740.709 783.095,747.057 767.983,750.052 752.871,751.124 737.76,750.501 722.648,748.719 707.536,746.118 692.424,742.801 677.312,739.079 662.201,735.029 647.089,730.764 631.977,726.367 616.865,721.904 601.753,717.428 586.642,712.987 571.53,708.615 556.418,704.349 541.306,700.207 526.195,696.212 511.083,692.381 495.971,688.732 480.859,685.273 465.747,682.015 450.636,678.965 435.524,676.131 420.412,673.516 405.3,671.124 390.188,668.958 375.077,667.018 359.965,665.306 344.853,663.82 "/>
<path clip-path="url(#clip870)" d="M2024.81 196.789 L2283.88 196.789 L2283.88 93.1086 L2024.81 93.1086  Z" fill="#ffffff" fill-rule="evenodd" fill-opacity="1"/>
<polyline clip-path="url(#clip870)" style="stroke:#000000; stroke-linecap:round; stroke-linejoin:round; stroke-width:4; stroke-opacity:1; fill:none" points="2024.81,196.789 2283.88,196.789 2283.88,93.1086 2024.81,93.1086 2024.81,196.789 "/>
<polyline clip-path="url(#clip870)" style="stroke:#009af9; stroke-linecap:round; stroke-linejoin:round; stroke-width:4; stroke-opacity:1; fill:none" points="2047.77,144.949 2185.53,144.949 "/>
<path clip-path="url(#clip870)" d="M2222.33 164.636 Q2220.52 169.266 2218.81 170.678 Q2217.1 172.09 2214.23 172.09 L2210.82 172.09 L2210.82 168.525 L2213.32 168.525 Q2215.08 168.525 2216.06 167.692 Q2217.03 166.858 2218.21 163.756 L2218.97 161.812 L2208.49 136.303 L2213 136.303 L2221.1 156.581 L2229.2 136.303 L2233.72 136.303 L2222.33 164.636 Z" fill="#000000" fill-rule="nonzero" fill-opacity="1" /><path clip-path="url(#clip870)" d="M2241.01 158.293 L2248.65 158.293 L2248.65 131.928 L2240.34 133.595 L2240.34 129.335 L2248.6 127.669 L2253.28 127.669 L2253.28 158.293 L2260.92 158.293 L2260.92 162.229 L2241.01 162.229 L2241.01 158.293 Z" fill="#000000" fill-rule="nonzero" fill-opacity="1" /></svg>
